<?xml version="1.0" standalone="no"?>
<!DOCTYPE svg PUBLIC "-//W3C//DTD SVG 20010904//EN"
 "http://www.w3.org/TR/2001/REC-SVG-20010904/DTD/svg10.dtd">
<svg version="1.0" xmlns="http://www.w3.org/2000/svg"
 width="278.000000pt" height="181.000000pt" viewBox="0 0 278.000000 181.000000"
 preserveAspectRatio="xMidYMid meet">

<g transform="translate(0.000000,181.000000) scale(0.100000,-0.100000)"
fill="#000000" stroke="none">
<path d="M689 1758 c-55 -69 -142 -251 -169 -354 -16 -63 -31 -93 -65 -133
-104 -128 -157 -314 -135 -473 13 -86 37 -143 88 -206 32 -39 41 -59 50 -119
24 -147 103 -296 218 -409 l65 -64 77 0 77 0 -82 41 c-61 30 -98 57 -138 100
-82 89 -148 218 -169 330 l-6 36 68 -5 c65 -4 70 -3 103 25 32 28 38 30 90 24
40 -5 71 -17 110 -42 94 -62 120 -72 185 -72 173 1 434 222 386 327 -10 21
-20 25 -89 32 -43 4 -139 4 -213 1 -74 -4 -201 -10 -282 -13 l-146 -7 -22 -78
c-12 -43 -31 -91 -41 -108 -16 -26 -25 -31 -59 -31 -81 0 -150 52 -191 145
-17 37 -24 75 -27 148 -4 84 -1 108 21 180 27 85 76 175 126 232 16 19 32 48
36 67 13 63 107 289 142 341 19 29 55 71 79 95 l45 42 -45 0 c-43 0 -48 -3
-87 -52z m678 -1024 l22 -6 -19 -38 c-39 -76 -161 -162 -273 -192 -59 -15
-104 -2 -189 55 l-63 42 -3 54 c-2 30 1 58 6 63 19 19 460 38 519 22z m-582
-61 c-3 -40 -7 -49 -24 -51 -25 -4 -27 14 -7 63 21 49 34 43 31 -12z"/>
<path d="M1952 1768 c44 -55 89 -130 126 -210 34 -73 107 -285 118 -342 4 -24
28 -67 60 -110 61 -80 167 -287 183 -358 27 -118 5 -207 -51 -208 -25 0 -94
65 -125 117 -19 34 -31 43 -51 43 l-27 0 4 -124 c1 -69 -2 -148 -8 -176 -19
-88 -70 -179 -141 -250 -73 -73 -123 -101 -231 -130 l-74 -19 155 2 155 2 15
45 c8 25 31 68 51 95 80 110 139 268 139 374 0 23 3 41 6 41 4 0 21 -13 40
-30 68 -60 160 -47 191 28 47 112 -37 374 -183 572 -24 33 -44 68 -44 78 0 39
-62 235 -103 329 -38 85 -105 200 -150 256 -9 11 -28 17 -52 17 l-37 0 34 -42z"/>
<path d="M1745 1476 c-20 -30 -11 -72 20 -92 21 -14 27 -14 53 0 34 18 44 38
36 72 -12 48 -83 61 -109 20z"/>
<path d="M981 1444 c-28 -35 -26 -58 4 -82 62 -49 140 33 85 88 -28 28 -64 25
-89 -6z"/>
<path d="M1284 1375 c-73 -16 -159 -58 -174 -84 -18 -34 -12 -86 14 -114 59
-64 182 -93 356 -84 162 8 267 54 284 123 29 115 -254 208 -480 159z m306 -64
c83 -26 130 -62 114 -88 -32 -52 -187 -90 -323 -79 -104 8 -148 19 -192 49
-44 30 -48 59 -12 85 26 18 99 43 163 56 49 9 186 -3 250 -23z"/>
</g>
</svg>
